<svg xmlns="http://www.w3.org/2000/svg" viewBox="0 0 24 24"><path fill="#59c7f9" d="M13.8 11c.7.97-.47 1.99-.75 2.57.91.37 2.58.8 2.14-.82a2.7 2.7 0 0 0-1.4-1.76zM12.01 0C8.02 1.47 4.03 2.91.01 4.4c.54 2.76.65 5.59.33 8.39-.02 1.29-.9 2.83.6 3.61a40.5 40.5 0 0 0 10.9 7.56c1.2-.24 2.3-1.09 3.41-1.65a37.36 37.36 0 0 0 8.71-6.97 33.38 33.38 0 0 1-.43-7.67c.03-.56.32-2.26-.26-.84-1.19 2.41-1.38 5.16-1.4 7.8-.46.81-1.3 1.4-1.99 2.03a23 23 0 0 1-3.78 2.7c-1.6-.02-.83-1.8.1-2.27.78-1.09 1.95-1.09 2.01-.07.73-.72.13-2.28.63-2.73.6.19.75 1.77.92.4.2-1 .02-2.06-.4-2.97.82-.32 1.7 2.29 1.55.65.16-1.1-1.09-2.17-1.49-2.59.61-.17 1.8.51 1.91.3a4.58 4.58 0 0 0-3.06-1.65c.39-.47 2-.16 2.82-.06 1.12.2-.73-.74-1.2-.82a12.83 12.83 0 0 0-4.15-.5c-.03.9-2.32 1.77-.53 1.93.58.2 2.78.98 1.06 1.13-.5.24-2.06.11-1.85.47 1.11.61 1.93 1.95 1.7 3.22-.92 2.04-3.28 3.06-4.07 5.17-.54 1.01.96 1.72 1.01 2.2-1.08 1.13-1.9-.61-2.42-1.19-1.12.15-2.3.11-3.18-.72a28.43 28.43 0 0 1-5.4-4.5c.51-3.2.65-6.48.04-9.67 3.3-1.24 6.61-2.45 9.93-3.64l9.2 2c-2-.86-4.12-1.56-6.18-2.33C14 .77 12.98.3 11.91.02zm.27 3.04C11.1 5 8.82 5.79 7.1 7.15c-.51.17-.56-1.57-.93-.4-.26 1.1-.49 2.4-1.93 2.31-1.55-.08-1.7 2.27-.18 2.3.24-1.32 2.01.12 2.33-1.2.84-.77 3.07-.58 3.4-.26-1.27.38-2.15 1.42-3.1 2.17-.66.02-1.79.13-.77.9.33.57 1.59 1.47 1.02.12.19-.6 1.42 1.15 1.06-.08-.14-1.45 1.64-2.14 2.84-1.85.59.28 2.1.46.9-.29-1.37-.75 1.04-.6 1.53-.9.6-.04 2.02-.67.67-.64-.68-.01-2.9-.35-1.17-.66.64-.11 2.19-1.04 1.79-1.36-.84.33-2.7.6-3.01.25 1.79-.7 3.79-1.8 4.22-3.85-.12-.92-.97.81-1.42.95a12.15 12.15 0 0 1-4.5 2.32c1-1.09 2.67-2.02 2.58-3.71l-.06-.14zM8.76 7.36c-.16.91-.75 1.84-1.8 1.31-.67-.1.98-.68 1.2-.95l.6-.36zm3.37 6.61c-1.1.56-2.32.9-3.38 1.54.52.78 1.83.98 2.78 1.12 1.06.39 1.64-.74 2.36-1.28 1.57-.99-1.29-.84-1.76-1.38zm-4.25 2.14c-1 .79-1.77 2.96.2 2.89 1.04.11 2.9.86 2.98-.68.55-.6.72-1.13-.3-1.02-1.05-.15-2-.61-2.87-1.19z"/></svg>
